<?xml version="1.0" encoding="UTF-8" standalone="no"?>
<!-- Created with Inkscape (http://www.inkscape.org/) -->

<svg
   xmlns:dc="http://purl.org/dc/elements/1.1/"
   xmlns:cc="http://creativecommons.org/ns#"
   xmlns:rdf="http://www.w3.org/1999/02/22-rdf-syntax-ns#"
   xmlns:svg="http://www.w3.org/2000/svg"
   xmlns="http://www.w3.org/2000/svg"
   xmlns:sodipodi="http://sodipodi.sourceforge.net/DTD/sodipodi-0.dtd"
   xmlns:inkscape="http://www.inkscape.org/namespaces/inkscape"
   width="32"
   height="16"
   id="svg3466"
   version="1.1"
   inkscape:version="0.48.1 "
   sodipodi:docname="connector.svg"
   inkscape:export-filename="C:\Users\jhh\git-projects\blockjs\connector.png"
   inkscape:export-xdpi="90"
   inkscape:export-ydpi="90">
  <title
     id="title4246">Connector</title>
  <defs
     id="defs3468" />
  <sodipodi:namedview
     id="base"
     pagecolor="#ffffff"
     bordercolor="#666666"
     borderopacity="1.0"
     inkscape:pageopacity="0.0"
     inkscape:pageshadow="2"
     inkscape:zoom="32"
     inkscape:cx="16.168202"
     inkscape:cy="5.2897156"
     inkscape:document-units="px"
     inkscape:current-layer="layer2"
     showgrid="false"
     inkscape:window-width="1920"
     inkscape:window-height="1170"
     inkscape:window-x="-6"
     inkscape:window-y="-6"
     inkscape:window-maximized="1" />
  <metadata
     id="metadata3471">
    <rdf:RDF>
      <cc:Work
         rdf:about="">
        <dc:format>image/svg+xml</dc:format>
        <dc:type
           rdf:resource="http://purl.org/dc/dcmitype/StillImage" />
        <dc:title>Connector</dc:title>
      </cc:Work>
    </rdf:RDF>
  </metadata>
  <g
     inkscape:groupmode="layer"
     id="layer3"
     inkscape:label="Background"
     style="display:inline"
     sodipodi:insensitive="true">
    <rect
       style="fill:#b3b3b3;fill-opacity:1;fill-rule:nonzero;stroke:none"
       id="rect4254"
       width="32"
       height="8"
       x="0"
       y="0" />
    <rect
       style="fill:#ececec;fill-opacity:1;fill-rule:nonzero;stroke:none;display:inline"
       id="rect4254-1"
       width="32"
       height="8"
       x="-9.200626e-009"
       y="8.03125" />
    <rect
       style="fill:#999999;fill-opacity:1;fill-rule:nonzero;stroke:none;display:inline"
       id="rect4254-6"
       width="32"
       height="2"
       x="0"
       y="6" />
  </g>
  <g
     inkscape:label="Output"
     inkscape:groupmode="layer"
     id="layer1"
     transform="translate(0,-1036.3622)"
     style="display:inline"
     sodipodi:insensitive="true">
    <path
       style="fill:#ffffff;fill-opacity:1;fill-rule:nonzero;stroke:none"
       d="m 0,1043.2684 8,-3.2187 8,0 8,0 8,3.2812 0,1.0313 -32,0 z"
       id="rect4292"
       inkscape:connector-curvature="0"
       sodipodi:nodetypes="cccccccc" />
    <path
       style="fill:#000000;fill-opacity:1;fill-rule:nonzero;stroke:none"
       d="m 0,1044.3622 0,-2 16,-6 16,6 0,2 c 0,0 -8.84729,-6.1321 -11,-3 -1.755989,2.5549 6.440268,4.5458 5.5,7.5 -1.118953,3.5155 -6.810676,3.5 -10.5,3.5 -3.689324,0 -9.3810471,0.015 -10.5,-3.5 -0.9402684,-2.9542 7.255989,-4.9451 5.5,-7.5 -2.1527099,-3.1321 -11,3 -11,3 z"
       id="rect3474"
       inkscape:connector-curvature="0"
       sodipodi:nodetypes="cccccsssssc" />
  </g>
  <g
     inkscape:groupmode="layer"
     id="layer2"
     inkscape:label="Input"
     transform="translate(0,-16)"
     style="display:inline">
    <rect
       style="fill:#ffffff;fill-opacity:1;fill-rule:nonzero;stroke:none"
       id="rect4295"
       width="22"
       height="8"
       x="5"
       y="24" />
    <path
       style="fill:#00aad4;fill-opacity:1;fill-rule:nonzero;stroke:none;display:inline"
       d="m 0,24 c 0,0 8.8472901,-6.1321 11,-3 1.755989,2.5549 -6.4402684,4.5458 -5.5,7.5 1.1189529,3.5155 6.810676,3.5 10.5,3.5 3.689324,0 9.381047,0.015 10.5,-3.5 0.940268,-2.9542 -7.255989,-4.9451 -5.5,-7.5 2.15271,-3.1321 11,3 11,3 l 0,8 -32,0 z"
       id="rect4249"
       inkscape:connector-curvature="0"
       sodipodi:nodetypes="cssssscccc" />
  </g>
</svg>
